<mxfile host="app.diagrams.net" modified="2023-04-15T14:50:02.439Z" agent="Mozilla/5.0 (Windows NT 10.0; Win64; x64; rv:109.0) Gecko/20100101 Firefox/112.0" etag="TZBSS0ljviRFj1j-Wqd-" version="21.1.8" type="github">
  <diagram name="Page-1" id="lL_bu7oZAy5EK5JGqMmi">
    <mxGraphModel dx="1434" dy="754" grid="1" gridSize="10" guides="1" tooltips="1" connect="1" arrows="1" fold="1" page="1" pageScale="1" pageWidth="1169" pageHeight="827" math="0" shadow="0">
      <root>
        <mxCell id="0" />
        <mxCell id="1" parent="0" />
        <mxCell id="xF60H8iYvVohdwmhJTkd-1" value="" style="rounded=0;whiteSpace=wrap;html=1;fillColor=#f5f5f5;fontColor=#333333;strokeColor=#666666;" parent="1" vertex="1">
          <mxGeometry x="10" width="1150" height="90" as="geometry" />
        </mxCell>
        <mxCell id="xF60H8iYvVohdwmhJTkd-2" value="Affichages" style="shape=partialRectangle;whiteSpace=wrap;html=1;bottom=0;top=0;fillColor=none;" parent="1" vertex="1">
          <mxGeometry x="235" y="50" width="120" height="40" as="geometry" />
        </mxCell>
        <mxCell id="xF60H8iYvVohdwmhJTkd-3" value="Formulaires" style="shape=partialRectangle;whiteSpace=wrap;html=1;bottom=0;top=0;fillColor=none;" parent="1" vertex="1">
          <mxGeometry x="355" y="50" width="120" height="40" as="geometry" />
        </mxCell>
        <mxCell id="xF60H8iYvVohdwmhJTkd-4" value="Modifications" style="shape=partialRectangle;whiteSpace=wrap;html=1;bottom=0;top=0;fillColor=none;" parent="1" vertex="1">
          <mxGeometry x="475" y="50" width="120" height="40" as="geometry" />
        </mxCell>
        <mxCell id="xF60H8iYvVohdwmhJTkd-5" value="Accueil" style="shape=partialRectangle;whiteSpace=wrap;html=1;bottom=0;top=0;fillColor=none;" parent="1" vertex="1">
          <mxGeometry x="115" y="50" width="120" height="40" as="geometry" />
        </mxCell>
        <mxCell id="xF60H8iYvVohdwmhJTkd-6" value="" style="rounded=0;whiteSpace=wrap;html=1;" parent="1" vertex="1">
          <mxGeometry x="305" y="120" width="560" height="120" as="geometry" />
        </mxCell>
        <mxCell id="xF60H8iYvVohdwmhJTkd-7" value="&lt;font style=&quot;font-size: 27px;&quot;&gt;NOM&amp;nbsp; &amp;nbsp;PRENOM&lt;/font&gt;" style="text;html=1;strokeColor=none;fillColor=none;align=center;verticalAlign=middle;whiteSpace=wrap;rounded=0;" parent="1" vertex="1">
          <mxGeometry x="415" y="150" width="340" height="40" as="geometry" />
        </mxCell>
        <mxCell id="xF60H8iYvVohdwmhJTkd-8" value="&lt;i&gt;Fiche information personne&lt;/i&gt;" style="text;html=1;strokeColor=none;fillColor=none;align=center;verticalAlign=middle;whiteSpace=wrap;rounded=0;" parent="1" vertex="1">
          <mxGeometry x="450" y="120" width="260" height="30" as="geometry" />
        </mxCell>
        <mxCell id="xF60H8iYvVohdwmhJTkd-9" value="né(e) le 01/01/2000 (23 ans)" style="text;html=1;strokeColor=none;fillColor=none;align=center;verticalAlign=middle;whiteSpace=wrap;rounded=0;" parent="1" vertex="1">
          <mxGeometry x="492.5" y="180" width="185" height="30" as="geometry" />
        </mxCell>
        <mxCell id="xF60H8iYvVohdwmhJTkd-10" value="&lt;font style=&quot;font-size: 20px;&quot;&gt;Acteur/Actrice&lt;/font&gt;" style="text;html=1;strokeColor=none;fillColor=none;align=center;verticalAlign=middle;whiteSpace=wrap;rounded=0;" parent="1" vertex="1">
          <mxGeometry x="475" y="210" width="220" height="30" as="geometry" />
        </mxCell>
        <mxCell id="xF60H8iYvVohdwmhJTkd-11" value="" style="shape=table;startSize=0;container=1;collapsible=0;childLayout=tableLayout;fontSize=16;columnLines=0;" parent="1" vertex="1">
          <mxGeometry x="150" y="270" width="870" height="410" as="geometry" />
        </mxCell>
        <mxCell id="xF60H8iYvVohdwmhJTkd-12" value="" style="shape=tableRow;horizontal=0;startSize=0;swimlaneHead=0;swimlaneBody=0;strokeColor=inherit;top=0;left=0;bottom=0;right=0;collapsible=0;dropTarget=0;fillColor=none;points=[[0,0.5],[1,0.5]];portConstraint=eastwest;fontSize=16;" parent="xF60H8iYvVohdwmhJTkd-11" vertex="1">
          <mxGeometry width="870" height="32" as="geometry" />
        </mxCell>
        <mxCell id="xF60H8iYvVohdwmhJTkd-13" value="Titre&amp;nbsp;" style="shape=partialRectangle;html=1;whiteSpace=wrap;connectable=0;strokeColor=inherit;overflow=hidden;fillColor=none;top=0;left=0;bottom=0;right=0;pointerEvents=1;fontSize=16;strokeWidth=0;" parent="xF60H8iYvVohdwmhJTkd-12" vertex="1">
          <mxGeometry width="270" height="32" as="geometry">
            <mxRectangle width="270" height="32" as="alternateBounds" />
          </mxGeometry>
        </mxCell>
        <mxCell id="xF60H8iYvVohdwmhJTkd-14" value="Rôle" style="shape=partialRectangle;html=1;whiteSpace=wrap;connectable=0;strokeColor=inherit;overflow=hidden;fillColor=none;top=0;left=0;bottom=0;right=0;pointerEvents=1;fontSize=16;" parent="xF60H8iYvVohdwmhJTkd-12" vertex="1">
          <mxGeometry x="270" width="182" height="32" as="geometry">
            <mxRectangle width="182" height="32" as="alternateBounds" />
          </mxGeometry>
        </mxCell>
        <mxCell id="xF60H8iYvVohdwmhJTkd-15" value="Année" style="shape=partialRectangle;html=1;whiteSpace=wrap;connectable=0;strokeColor=inherit;overflow=hidden;fillColor=none;top=0;left=0;bottom=0;right=0;pointerEvents=1;fontSize=16;" parent="xF60H8iYvVohdwmhJTkd-12" vertex="1">
          <mxGeometry x="452" width="138" height="32" as="geometry">
            <mxRectangle width="138" height="32" as="alternateBounds" />
          </mxGeometry>
        </mxCell>
        <mxCell id="xF60H8iYvVohdwmhJTkd-57" value="Genre" style="shape=partialRectangle;html=1;whiteSpace=wrap;connectable=0;strokeColor=inherit;overflow=hidden;fillColor=none;top=0;left=0;bottom=0;right=0;pointerEvents=1;fontSize=16;" parent="xF60H8iYvVohdwmhJTkd-12" vertex="1">
          <mxGeometry x="590" width="130" height="32" as="geometry">
            <mxRectangle width="130" height="32" as="alternateBounds" />
          </mxGeometry>
        </mxCell>
        <mxCell id="WdyJap2RYEmjAmXDNgc3-6" value="note" style="shape=partialRectangle;html=1;whiteSpace=wrap;connectable=0;strokeColor=inherit;overflow=hidden;fillColor=none;top=0;left=0;bottom=0;right=0;pointerEvents=1;fontSize=16;" vertex="1" parent="xF60H8iYvVohdwmhJTkd-12">
          <mxGeometry x="720" width="150" height="32" as="geometry">
            <mxRectangle width="150" height="32" as="alternateBounds" />
          </mxGeometry>
        </mxCell>
        <mxCell id="xF60H8iYvVohdwmhJTkd-16" value="" style="shape=tableRow;horizontal=0;startSize=0;swimlaneHead=0;swimlaneBody=0;strokeColor=inherit;top=0;left=0;bottom=0;right=0;collapsible=0;dropTarget=0;fillColor=none;points=[[0,0.5],[1,0.5]];portConstraint=eastwest;fontSize=16;" parent="xF60H8iYvVohdwmhJTkd-11" vertex="1">
          <mxGeometry y="32" width="870" height="34" as="geometry" />
        </mxCell>
        <mxCell id="xF60H8iYvVohdwmhJTkd-17" value="" style="shape=partialRectangle;html=1;whiteSpace=wrap;connectable=0;overflow=hidden;top=0;left=0;bottom=0;right=0;pointerEvents=1;fontSize=16;strokeWidth=0;fillColor=none;strokeColor=inherit;" parent="xF60H8iYvVohdwmhJTkd-16" vertex="1">
          <mxGeometry width="270" height="34" as="geometry">
            <mxRectangle width="270" height="34" as="alternateBounds" />
          </mxGeometry>
        </mxCell>
        <mxCell id="xF60H8iYvVohdwmhJTkd-18" value="" style="shape=partialRectangle;html=1;whiteSpace=wrap;connectable=0;strokeColor=inherit;overflow=hidden;fillColor=none;top=0;left=0;bottom=0;right=0;pointerEvents=1;fontSize=16;" parent="xF60H8iYvVohdwmhJTkd-16" vertex="1">
          <mxGeometry x="270" width="182" height="34" as="geometry">
            <mxRectangle width="182" height="34" as="alternateBounds" />
          </mxGeometry>
        </mxCell>
        <mxCell id="xF60H8iYvVohdwmhJTkd-19" value="" style="shape=partialRectangle;html=1;whiteSpace=wrap;connectable=0;strokeColor=inherit;overflow=hidden;fillColor=none;top=0;left=0;bottom=0;right=0;pointerEvents=1;fontSize=16;" parent="xF60H8iYvVohdwmhJTkd-16" vertex="1">
          <mxGeometry x="452" width="138" height="34" as="geometry">
            <mxRectangle width="138" height="34" as="alternateBounds" />
          </mxGeometry>
        </mxCell>
        <mxCell id="xF60H8iYvVohdwmhJTkd-58" style="shape=partialRectangle;html=1;whiteSpace=wrap;connectable=0;strokeColor=inherit;overflow=hidden;fillColor=none;top=0;left=0;bottom=0;right=0;pointerEvents=1;fontSize=16;" parent="xF60H8iYvVohdwmhJTkd-16" vertex="1">
          <mxGeometry x="590" width="130" height="34" as="geometry">
            <mxRectangle width="130" height="34" as="alternateBounds" />
          </mxGeometry>
        </mxCell>
        <mxCell id="WdyJap2RYEmjAmXDNgc3-7" style="shape=partialRectangle;html=1;whiteSpace=wrap;connectable=0;strokeColor=inherit;overflow=hidden;fillColor=none;top=0;left=0;bottom=0;right=0;pointerEvents=1;fontSize=16;" vertex="1" parent="xF60H8iYvVohdwmhJTkd-16">
          <mxGeometry x="720" width="150" height="34" as="geometry">
            <mxRectangle width="150" height="34" as="alternateBounds" />
          </mxGeometry>
        </mxCell>
        <mxCell id="xF60H8iYvVohdwmhJTkd-20" value="" style="shape=tableRow;horizontal=0;startSize=0;swimlaneHead=0;swimlaneBody=0;strokeColor=inherit;top=0;left=0;bottom=0;right=0;collapsible=0;dropTarget=0;fillColor=none;points=[[0,0.5],[1,0.5]];portConstraint=eastwest;fontSize=16;" parent="xF60H8iYvVohdwmhJTkd-11" vertex="1">
          <mxGeometry y="66" width="870" height="39" as="geometry" />
        </mxCell>
        <mxCell id="xF60H8iYvVohdwmhJTkd-21" value="" style="shape=partialRectangle;html=1;whiteSpace=wrap;connectable=0;overflow=hidden;top=0;left=0;bottom=0;right=0;pointerEvents=1;fontSize=16;strokeWidth=0;fillColor=#f5f5f5;strokeColor=#666666;fontColor=#333333;" parent="xF60H8iYvVohdwmhJTkd-20" vertex="1">
          <mxGeometry width="270" height="39" as="geometry">
            <mxRectangle width="270" height="39" as="alternateBounds" />
          </mxGeometry>
        </mxCell>
        <mxCell id="xF60H8iYvVohdwmhJTkd-22" value="" style="shape=partialRectangle;html=1;whiteSpace=wrap;connectable=0;strokeColor=#666666;overflow=hidden;fillColor=#f5f5f5;top=0;left=0;bottom=0;right=0;pointerEvents=1;fontSize=16;fontColor=#333333;" parent="xF60H8iYvVohdwmhJTkd-20" vertex="1">
          <mxGeometry x="270" width="182" height="39" as="geometry">
            <mxRectangle width="182" height="39" as="alternateBounds" />
          </mxGeometry>
        </mxCell>
        <mxCell id="xF60H8iYvVohdwmhJTkd-23" value="" style="shape=partialRectangle;html=1;whiteSpace=wrap;connectable=0;strokeColor=#666666;overflow=hidden;fillColor=#f5f5f5;top=0;left=0;bottom=0;right=0;pointerEvents=1;fontSize=16;fontColor=#333333;" parent="xF60H8iYvVohdwmhJTkd-20" vertex="1">
          <mxGeometry x="452" width="138" height="39" as="geometry">
            <mxRectangle width="138" height="39" as="alternateBounds" />
          </mxGeometry>
        </mxCell>
        <mxCell id="xF60H8iYvVohdwmhJTkd-59" style="shape=partialRectangle;html=1;whiteSpace=wrap;connectable=0;strokeColor=#666666;overflow=hidden;fillColor=#f5f5f5;top=0;left=0;bottom=0;right=0;pointerEvents=1;fontSize=16;fontColor=#333333;" parent="xF60H8iYvVohdwmhJTkd-20" vertex="1">
          <mxGeometry x="590" width="130" height="39" as="geometry">
            <mxRectangle width="130" height="39" as="alternateBounds" />
          </mxGeometry>
        </mxCell>
        <mxCell id="WdyJap2RYEmjAmXDNgc3-8" style="shape=partialRectangle;html=1;whiteSpace=wrap;connectable=0;strokeColor=#666666;overflow=hidden;fillColor=#f5f5f5;top=0;left=0;bottom=0;right=0;pointerEvents=1;fontSize=16;fontColor=#333333;" vertex="1" parent="xF60H8iYvVohdwmhJTkd-20">
          <mxGeometry x="720" width="150" height="39" as="geometry">
            <mxRectangle width="150" height="39" as="alternateBounds" />
          </mxGeometry>
        </mxCell>
        <mxCell id="xF60H8iYvVohdwmhJTkd-24" style="shape=tableRow;horizontal=0;startSize=0;swimlaneHead=0;swimlaneBody=0;strokeColor=inherit;top=0;left=0;bottom=0;right=0;collapsible=0;dropTarget=0;fillColor=none;points=[[0,0.5],[1,0.5]];portConstraint=eastwest;fontSize=16;" parent="xF60H8iYvVohdwmhJTkd-11" vertex="1">
          <mxGeometry y="105" width="870" height="38" as="geometry" />
        </mxCell>
        <mxCell id="xF60H8iYvVohdwmhJTkd-25" style="shape=partialRectangle;html=1;whiteSpace=wrap;connectable=0;overflow=hidden;top=0;left=0;bottom=0;right=0;pointerEvents=1;fontSize=16;strokeWidth=0;fillColor=none;strokeColor=inherit;" parent="xF60H8iYvVohdwmhJTkd-24" vertex="1">
          <mxGeometry width="270" height="38" as="geometry">
            <mxRectangle width="270" height="38" as="alternateBounds" />
          </mxGeometry>
        </mxCell>
        <mxCell id="xF60H8iYvVohdwmhJTkd-26" style="shape=partialRectangle;html=1;whiteSpace=wrap;connectable=0;strokeColor=inherit;overflow=hidden;fillColor=none;top=0;left=0;bottom=0;right=0;pointerEvents=1;fontSize=16;" parent="xF60H8iYvVohdwmhJTkd-24" vertex="1">
          <mxGeometry x="270" width="182" height="38" as="geometry">
            <mxRectangle width="182" height="38" as="alternateBounds" />
          </mxGeometry>
        </mxCell>
        <mxCell id="xF60H8iYvVohdwmhJTkd-27" style="shape=partialRectangle;html=1;whiteSpace=wrap;connectable=0;strokeColor=inherit;overflow=hidden;fillColor=none;top=0;left=0;bottom=0;right=0;pointerEvents=1;fontSize=16;" parent="xF60H8iYvVohdwmhJTkd-24" vertex="1">
          <mxGeometry x="452" width="138" height="38" as="geometry">
            <mxRectangle width="138" height="38" as="alternateBounds" />
          </mxGeometry>
        </mxCell>
        <mxCell id="xF60H8iYvVohdwmhJTkd-60" style="shape=partialRectangle;html=1;whiteSpace=wrap;connectable=0;strokeColor=inherit;overflow=hidden;fillColor=none;top=0;left=0;bottom=0;right=0;pointerEvents=1;fontSize=16;" parent="xF60H8iYvVohdwmhJTkd-24" vertex="1">
          <mxGeometry x="590" width="130" height="38" as="geometry">
            <mxRectangle width="130" height="38" as="alternateBounds" />
          </mxGeometry>
        </mxCell>
        <mxCell id="WdyJap2RYEmjAmXDNgc3-9" style="shape=partialRectangle;html=1;whiteSpace=wrap;connectable=0;strokeColor=inherit;overflow=hidden;fillColor=none;top=0;left=0;bottom=0;right=0;pointerEvents=1;fontSize=16;" vertex="1" parent="xF60H8iYvVohdwmhJTkd-24">
          <mxGeometry x="720" width="150" height="38" as="geometry">
            <mxRectangle width="150" height="38" as="alternateBounds" />
          </mxGeometry>
        </mxCell>
        <mxCell id="xF60H8iYvVohdwmhJTkd-28" style="shape=tableRow;horizontal=0;startSize=0;swimlaneHead=0;swimlaneBody=0;strokeColor=inherit;top=0;left=0;bottom=0;right=0;collapsible=0;dropTarget=0;fillColor=none;points=[[0,0.5],[1,0.5]];portConstraint=eastwest;fontSize=16;" parent="xF60H8iYvVohdwmhJTkd-11" vertex="1">
          <mxGeometry y="143" width="870" height="37" as="geometry" />
        </mxCell>
        <mxCell id="xF60H8iYvVohdwmhJTkd-29" style="shape=partialRectangle;html=1;whiteSpace=wrap;connectable=0;overflow=hidden;top=0;left=0;bottom=0;right=0;pointerEvents=1;fontSize=16;strokeWidth=0;fillColor=#f5f5f5;strokeColor=#666666;fontColor=#333333;" parent="xF60H8iYvVohdwmhJTkd-28" vertex="1">
          <mxGeometry width="270" height="37" as="geometry">
            <mxRectangle width="270" height="37" as="alternateBounds" />
          </mxGeometry>
        </mxCell>
        <mxCell id="xF60H8iYvVohdwmhJTkd-30" style="shape=partialRectangle;html=1;whiteSpace=wrap;connectable=0;strokeColor=#666666;overflow=hidden;fillColor=#f5f5f5;top=0;left=0;bottom=0;right=0;pointerEvents=1;fontSize=16;fontColor=#333333;" parent="xF60H8iYvVohdwmhJTkd-28" vertex="1">
          <mxGeometry x="270" width="182" height="37" as="geometry">
            <mxRectangle width="182" height="37" as="alternateBounds" />
          </mxGeometry>
        </mxCell>
        <mxCell id="xF60H8iYvVohdwmhJTkd-31" style="shape=partialRectangle;html=1;whiteSpace=wrap;connectable=0;strokeColor=#666666;overflow=hidden;fillColor=#f5f5f5;top=0;left=0;bottom=0;right=0;pointerEvents=1;fontSize=16;fontColor=#333333;" parent="xF60H8iYvVohdwmhJTkd-28" vertex="1">
          <mxGeometry x="452" width="138" height="37" as="geometry">
            <mxRectangle width="138" height="37" as="alternateBounds" />
          </mxGeometry>
        </mxCell>
        <mxCell id="xF60H8iYvVohdwmhJTkd-61" style="shape=partialRectangle;html=1;whiteSpace=wrap;connectable=0;strokeColor=#666666;overflow=hidden;fillColor=#f5f5f5;top=0;left=0;bottom=0;right=0;pointerEvents=1;fontSize=16;fontColor=#333333;" parent="xF60H8iYvVohdwmhJTkd-28" vertex="1">
          <mxGeometry x="590" width="130" height="37" as="geometry">
            <mxRectangle width="130" height="37" as="alternateBounds" />
          </mxGeometry>
        </mxCell>
        <mxCell id="WdyJap2RYEmjAmXDNgc3-10" style="shape=partialRectangle;html=1;whiteSpace=wrap;connectable=0;strokeColor=#666666;overflow=hidden;fillColor=#f5f5f5;top=0;left=0;bottom=0;right=0;pointerEvents=1;fontSize=16;fontColor=#333333;" vertex="1" parent="xF60H8iYvVohdwmhJTkd-28">
          <mxGeometry x="720" width="150" height="37" as="geometry">
            <mxRectangle width="150" height="37" as="alternateBounds" />
          </mxGeometry>
        </mxCell>
        <mxCell id="xF60H8iYvVohdwmhJTkd-32" style="shape=tableRow;horizontal=0;startSize=0;swimlaneHead=0;swimlaneBody=0;strokeColor=inherit;top=0;left=0;bottom=0;right=0;collapsible=0;dropTarget=0;fillColor=none;points=[[0,0.5],[1,0.5]];portConstraint=eastwest;fontSize=16;" parent="xF60H8iYvVohdwmhJTkd-11" vertex="1">
          <mxGeometry y="180" width="870" height="39" as="geometry" />
        </mxCell>
        <mxCell id="xF60H8iYvVohdwmhJTkd-33" style="shape=partialRectangle;html=1;whiteSpace=wrap;connectable=0;overflow=hidden;top=0;left=0;bottom=0;right=0;pointerEvents=1;fontSize=16;strokeWidth=0;fillColor=none;strokeColor=inherit;" parent="xF60H8iYvVohdwmhJTkd-32" vertex="1">
          <mxGeometry width="270" height="39" as="geometry">
            <mxRectangle width="270" height="39" as="alternateBounds" />
          </mxGeometry>
        </mxCell>
        <mxCell id="xF60H8iYvVohdwmhJTkd-34" style="shape=partialRectangle;html=1;whiteSpace=wrap;connectable=0;strokeColor=inherit;overflow=hidden;fillColor=none;top=0;left=0;bottom=0;right=0;pointerEvents=1;fontSize=16;" parent="xF60H8iYvVohdwmhJTkd-32" vertex="1">
          <mxGeometry x="270" width="182" height="39" as="geometry">
            <mxRectangle width="182" height="39" as="alternateBounds" />
          </mxGeometry>
        </mxCell>
        <mxCell id="xF60H8iYvVohdwmhJTkd-35" style="shape=partialRectangle;html=1;whiteSpace=wrap;connectable=0;strokeColor=inherit;overflow=hidden;fillColor=none;top=0;left=0;bottom=0;right=0;pointerEvents=1;fontSize=16;" parent="xF60H8iYvVohdwmhJTkd-32" vertex="1">
          <mxGeometry x="452" width="138" height="39" as="geometry">
            <mxRectangle width="138" height="39" as="alternateBounds" />
          </mxGeometry>
        </mxCell>
        <mxCell id="xF60H8iYvVohdwmhJTkd-62" style="shape=partialRectangle;html=1;whiteSpace=wrap;connectable=0;strokeColor=inherit;overflow=hidden;fillColor=none;top=0;left=0;bottom=0;right=0;pointerEvents=1;fontSize=16;" parent="xF60H8iYvVohdwmhJTkd-32" vertex="1">
          <mxGeometry x="590" width="130" height="39" as="geometry">
            <mxRectangle width="130" height="39" as="alternateBounds" />
          </mxGeometry>
        </mxCell>
        <mxCell id="WdyJap2RYEmjAmXDNgc3-11" style="shape=partialRectangle;html=1;whiteSpace=wrap;connectable=0;strokeColor=inherit;overflow=hidden;fillColor=none;top=0;left=0;bottom=0;right=0;pointerEvents=1;fontSize=16;" vertex="1" parent="xF60H8iYvVohdwmhJTkd-32">
          <mxGeometry x="720" width="150" height="39" as="geometry">
            <mxRectangle width="150" height="39" as="alternateBounds" />
          </mxGeometry>
        </mxCell>
        <mxCell id="xF60H8iYvVohdwmhJTkd-36" style="shape=tableRow;horizontal=0;startSize=0;swimlaneHead=0;swimlaneBody=0;strokeColor=#666666;top=0;left=0;bottom=0;right=0;collapsible=0;dropTarget=0;fillColor=#f5f5f5;points=[[0,0.5],[1,0.5]];portConstraint=eastwest;fontSize=16;fontColor=#333333;" parent="xF60H8iYvVohdwmhJTkd-11" vertex="1">
          <mxGeometry y="219" width="870" height="39" as="geometry" />
        </mxCell>
        <mxCell id="xF60H8iYvVohdwmhJTkd-37" style="shape=partialRectangle;html=1;whiteSpace=wrap;connectable=0;overflow=hidden;top=0;left=0;bottom=0;right=0;pointerEvents=1;fontSize=16;strokeWidth=0;fillColor=none;strokeColor=inherit;" parent="xF60H8iYvVohdwmhJTkd-36" vertex="1">
          <mxGeometry width="270" height="39" as="geometry">
            <mxRectangle width="270" height="39" as="alternateBounds" />
          </mxGeometry>
        </mxCell>
        <mxCell id="xF60H8iYvVohdwmhJTkd-38" style="shape=partialRectangle;html=1;whiteSpace=wrap;connectable=0;strokeColor=inherit;overflow=hidden;fillColor=none;top=0;left=0;bottom=0;right=0;pointerEvents=1;fontSize=16;" parent="xF60H8iYvVohdwmhJTkd-36" vertex="1">
          <mxGeometry x="270" width="182" height="39" as="geometry">
            <mxRectangle width="182" height="39" as="alternateBounds" />
          </mxGeometry>
        </mxCell>
        <mxCell id="xF60H8iYvVohdwmhJTkd-39" style="shape=partialRectangle;html=1;whiteSpace=wrap;connectable=0;strokeColor=inherit;overflow=hidden;fillColor=none;top=0;left=0;bottom=0;right=0;pointerEvents=1;fontSize=16;" parent="xF60H8iYvVohdwmhJTkd-36" vertex="1">
          <mxGeometry x="452" width="138" height="39" as="geometry">
            <mxRectangle width="138" height="39" as="alternateBounds" />
          </mxGeometry>
        </mxCell>
        <mxCell id="xF60H8iYvVohdwmhJTkd-63" style="shape=partialRectangle;html=1;whiteSpace=wrap;connectable=0;strokeColor=inherit;overflow=hidden;fillColor=none;top=0;left=0;bottom=0;right=0;pointerEvents=1;fontSize=16;" parent="xF60H8iYvVohdwmhJTkd-36" vertex="1">
          <mxGeometry x="590" width="130" height="39" as="geometry">
            <mxRectangle width="130" height="39" as="alternateBounds" />
          </mxGeometry>
        </mxCell>
        <mxCell id="WdyJap2RYEmjAmXDNgc3-12" style="shape=partialRectangle;html=1;whiteSpace=wrap;connectable=0;strokeColor=inherit;overflow=hidden;fillColor=none;top=0;left=0;bottom=0;right=0;pointerEvents=1;fontSize=16;" vertex="1" parent="xF60H8iYvVohdwmhJTkd-36">
          <mxGeometry x="720" width="150" height="39" as="geometry">
            <mxRectangle width="150" height="39" as="alternateBounds" />
          </mxGeometry>
        </mxCell>
        <mxCell id="xF60H8iYvVohdwmhJTkd-40" style="shape=tableRow;horizontal=0;startSize=0;swimlaneHead=0;swimlaneBody=0;strokeColor=inherit;top=0;left=0;bottom=0;right=0;collapsible=0;dropTarget=0;fillColor=none;points=[[0,0.5],[1,0.5]];portConstraint=eastwest;fontSize=16;" parent="xF60H8iYvVohdwmhJTkd-11" vertex="1">
          <mxGeometry y="258" width="870" height="38" as="geometry" />
        </mxCell>
        <mxCell id="xF60H8iYvVohdwmhJTkd-41" style="shape=partialRectangle;html=1;whiteSpace=wrap;connectable=0;overflow=hidden;top=0;left=0;bottom=0;right=0;pointerEvents=1;fontSize=16;strokeWidth=0;fillColor=none;strokeColor=inherit;" parent="xF60H8iYvVohdwmhJTkd-40" vertex="1">
          <mxGeometry width="270" height="38" as="geometry">
            <mxRectangle width="270" height="38" as="alternateBounds" />
          </mxGeometry>
        </mxCell>
        <mxCell id="xF60H8iYvVohdwmhJTkd-42" style="shape=partialRectangle;html=1;whiteSpace=wrap;connectable=0;strokeColor=inherit;overflow=hidden;fillColor=none;top=0;left=0;bottom=0;right=0;pointerEvents=1;fontSize=16;" parent="xF60H8iYvVohdwmhJTkd-40" vertex="1">
          <mxGeometry x="270" width="182" height="38" as="geometry">
            <mxRectangle width="182" height="38" as="alternateBounds" />
          </mxGeometry>
        </mxCell>
        <mxCell id="xF60H8iYvVohdwmhJTkd-43" style="shape=partialRectangle;html=1;whiteSpace=wrap;connectable=0;strokeColor=inherit;overflow=hidden;fillColor=none;top=0;left=0;bottom=0;right=0;pointerEvents=1;fontSize=16;" parent="xF60H8iYvVohdwmhJTkd-40" vertex="1">
          <mxGeometry x="452" width="138" height="38" as="geometry">
            <mxRectangle width="138" height="38" as="alternateBounds" />
          </mxGeometry>
        </mxCell>
        <mxCell id="xF60H8iYvVohdwmhJTkd-64" style="shape=partialRectangle;html=1;whiteSpace=wrap;connectable=0;strokeColor=inherit;overflow=hidden;fillColor=none;top=0;left=0;bottom=0;right=0;pointerEvents=1;fontSize=16;" parent="xF60H8iYvVohdwmhJTkd-40" vertex="1">
          <mxGeometry x="590" width="130" height="38" as="geometry">
            <mxRectangle width="130" height="38" as="alternateBounds" />
          </mxGeometry>
        </mxCell>
        <mxCell id="WdyJap2RYEmjAmXDNgc3-13" style="shape=partialRectangle;html=1;whiteSpace=wrap;connectable=0;strokeColor=inherit;overflow=hidden;fillColor=none;top=0;left=0;bottom=0;right=0;pointerEvents=1;fontSize=16;" vertex="1" parent="xF60H8iYvVohdwmhJTkd-40">
          <mxGeometry x="720" width="150" height="38" as="geometry">
            <mxRectangle width="150" height="38" as="alternateBounds" />
          </mxGeometry>
        </mxCell>
        <mxCell id="xF60H8iYvVohdwmhJTkd-44" style="shape=tableRow;horizontal=0;startSize=0;swimlaneHead=0;swimlaneBody=0;strokeColor=inherit;top=0;left=0;bottom=0;right=0;collapsible=0;dropTarget=0;fillColor=none;points=[[0,0.5],[1,0.5]];portConstraint=eastwest;fontSize=16;" parent="xF60H8iYvVohdwmhJTkd-11" vertex="1">
          <mxGeometry y="296" width="870" height="38" as="geometry" />
        </mxCell>
        <mxCell id="xF60H8iYvVohdwmhJTkd-45" style="shape=partialRectangle;html=1;whiteSpace=wrap;connectable=0;overflow=hidden;top=0;left=0;bottom=0;right=0;pointerEvents=1;fontSize=16;strokeWidth=0;fillColor=#f5f5f5;strokeColor=#666666;fontColor=#333333;" parent="xF60H8iYvVohdwmhJTkd-44" vertex="1">
          <mxGeometry width="270" height="38" as="geometry">
            <mxRectangle width="270" height="38" as="alternateBounds" />
          </mxGeometry>
        </mxCell>
        <mxCell id="xF60H8iYvVohdwmhJTkd-46" style="shape=partialRectangle;html=1;whiteSpace=wrap;connectable=0;strokeColor=#666666;overflow=hidden;fillColor=#f5f5f5;top=0;left=0;bottom=0;right=0;pointerEvents=1;fontSize=16;fontColor=#333333;" parent="xF60H8iYvVohdwmhJTkd-44" vertex="1">
          <mxGeometry x="270" width="182" height="38" as="geometry">
            <mxRectangle width="182" height="38" as="alternateBounds" />
          </mxGeometry>
        </mxCell>
        <mxCell id="xF60H8iYvVohdwmhJTkd-47" style="shape=partialRectangle;html=1;whiteSpace=wrap;connectable=0;strokeColor=#666666;overflow=hidden;fillColor=#f5f5f5;top=0;left=0;bottom=0;right=0;pointerEvents=1;fontSize=16;fontColor=#333333;" parent="xF60H8iYvVohdwmhJTkd-44" vertex="1">
          <mxGeometry x="452" width="138" height="38" as="geometry">
            <mxRectangle width="138" height="38" as="alternateBounds" />
          </mxGeometry>
        </mxCell>
        <mxCell id="xF60H8iYvVohdwmhJTkd-65" style="shape=partialRectangle;html=1;whiteSpace=wrap;connectable=0;strokeColor=#666666;overflow=hidden;fillColor=#f5f5f5;top=0;left=0;bottom=0;right=0;pointerEvents=1;fontSize=16;fontColor=#333333;" parent="xF60H8iYvVohdwmhJTkd-44" vertex="1">
          <mxGeometry x="590" width="130" height="38" as="geometry">
            <mxRectangle width="130" height="38" as="alternateBounds" />
          </mxGeometry>
        </mxCell>
        <mxCell id="WdyJap2RYEmjAmXDNgc3-14" style="shape=partialRectangle;html=1;whiteSpace=wrap;connectable=0;strokeColor=#666666;overflow=hidden;fillColor=#f5f5f5;top=0;left=0;bottom=0;right=0;pointerEvents=1;fontSize=16;fontColor=#333333;" vertex="1" parent="xF60H8iYvVohdwmhJTkd-44">
          <mxGeometry x="720" width="150" height="38" as="geometry">
            <mxRectangle width="150" height="38" as="alternateBounds" />
          </mxGeometry>
        </mxCell>
        <mxCell id="xF60H8iYvVohdwmhJTkd-48" style="shape=tableRow;horizontal=0;startSize=0;swimlaneHead=0;swimlaneBody=0;strokeColor=inherit;top=0;left=0;bottom=0;right=0;collapsible=0;dropTarget=0;fillColor=none;points=[[0,0.5],[1,0.5]];portConstraint=eastwest;fontSize=16;" parent="xF60H8iYvVohdwmhJTkd-11" vertex="1">
          <mxGeometry y="334" width="870" height="39" as="geometry" />
        </mxCell>
        <mxCell id="xF60H8iYvVohdwmhJTkd-49" style="shape=partialRectangle;html=1;whiteSpace=wrap;connectable=0;overflow=hidden;top=0;left=0;bottom=0;right=0;pointerEvents=1;fontSize=16;strokeWidth=0;fillColor=none;strokeColor=inherit;" parent="xF60H8iYvVohdwmhJTkd-48" vertex="1">
          <mxGeometry width="270" height="39" as="geometry">
            <mxRectangle width="270" height="39" as="alternateBounds" />
          </mxGeometry>
        </mxCell>
        <mxCell id="xF60H8iYvVohdwmhJTkd-50" style="shape=partialRectangle;html=1;whiteSpace=wrap;connectable=0;strokeColor=inherit;overflow=hidden;fillColor=none;top=0;left=0;bottom=0;right=0;pointerEvents=1;fontSize=16;" parent="xF60H8iYvVohdwmhJTkd-48" vertex="1">
          <mxGeometry x="270" width="182" height="39" as="geometry">
            <mxRectangle width="182" height="39" as="alternateBounds" />
          </mxGeometry>
        </mxCell>
        <mxCell id="xF60H8iYvVohdwmhJTkd-51" style="shape=partialRectangle;html=1;whiteSpace=wrap;connectable=0;strokeColor=inherit;overflow=hidden;fillColor=none;top=0;left=0;bottom=0;right=0;pointerEvents=1;fontSize=16;" parent="xF60H8iYvVohdwmhJTkd-48" vertex="1">
          <mxGeometry x="452" width="138" height="39" as="geometry">
            <mxRectangle width="138" height="39" as="alternateBounds" />
          </mxGeometry>
        </mxCell>
        <mxCell id="xF60H8iYvVohdwmhJTkd-66" style="shape=partialRectangle;html=1;whiteSpace=wrap;connectable=0;strokeColor=inherit;overflow=hidden;fillColor=none;top=0;left=0;bottom=0;right=0;pointerEvents=1;fontSize=16;" parent="xF60H8iYvVohdwmhJTkd-48" vertex="1">
          <mxGeometry x="590" width="130" height="39" as="geometry">
            <mxRectangle width="130" height="39" as="alternateBounds" />
          </mxGeometry>
        </mxCell>
        <mxCell id="WdyJap2RYEmjAmXDNgc3-15" style="shape=partialRectangle;html=1;whiteSpace=wrap;connectable=0;strokeColor=inherit;overflow=hidden;fillColor=none;top=0;left=0;bottom=0;right=0;pointerEvents=1;fontSize=16;" vertex="1" parent="xF60H8iYvVohdwmhJTkd-48">
          <mxGeometry x="720" width="150" height="39" as="geometry">
            <mxRectangle width="150" height="39" as="alternateBounds" />
          </mxGeometry>
        </mxCell>
        <mxCell id="xF60H8iYvVohdwmhJTkd-52" style="shape=tableRow;horizontal=0;startSize=0;swimlaneHead=0;swimlaneBody=0;strokeColor=inherit;top=0;left=0;bottom=0;right=0;collapsible=0;dropTarget=0;fillColor=none;points=[[0,0.5],[1,0.5]];portConstraint=eastwest;fontSize=16;" parent="xF60H8iYvVohdwmhJTkd-11" vertex="1">
          <mxGeometry y="373" width="870" height="37" as="geometry" />
        </mxCell>
        <mxCell id="xF60H8iYvVohdwmhJTkd-53" style="shape=partialRectangle;html=1;whiteSpace=wrap;connectable=0;overflow=hidden;top=0;left=0;bottom=0;right=0;pointerEvents=1;fontSize=16;strokeWidth=0;fillColor=#f5f5f5;strokeColor=#666666;fontColor=#333333;" parent="xF60H8iYvVohdwmhJTkd-52" vertex="1">
          <mxGeometry width="270" height="37" as="geometry">
            <mxRectangle width="270" height="37" as="alternateBounds" />
          </mxGeometry>
        </mxCell>
        <mxCell id="xF60H8iYvVohdwmhJTkd-54" value="" style="shape=partialRectangle;html=1;whiteSpace=wrap;connectable=0;strokeColor=#666666;overflow=hidden;fillColor=#f5f5f5;top=0;left=0;bottom=0;right=0;pointerEvents=1;fontSize=16;fontColor=#333333;" parent="xF60H8iYvVohdwmhJTkd-52" vertex="1">
          <mxGeometry x="270" width="182" height="37" as="geometry">
            <mxRectangle width="182" height="37" as="alternateBounds" />
          </mxGeometry>
        </mxCell>
        <mxCell id="xF60H8iYvVohdwmhJTkd-55" style="shape=partialRectangle;html=1;whiteSpace=wrap;connectable=0;strokeColor=#666666;overflow=hidden;fillColor=#f5f5f5;top=0;left=0;bottom=0;right=0;pointerEvents=1;fontSize=16;fontColor=#333333;" parent="xF60H8iYvVohdwmhJTkd-52" vertex="1">
          <mxGeometry x="452" width="138" height="37" as="geometry">
            <mxRectangle width="138" height="37" as="alternateBounds" />
          </mxGeometry>
        </mxCell>
        <mxCell id="xF60H8iYvVohdwmhJTkd-67" style="shape=partialRectangle;html=1;whiteSpace=wrap;connectable=0;strokeColor=#666666;overflow=hidden;fillColor=#f5f5f5;top=0;left=0;bottom=0;right=0;pointerEvents=1;fontSize=16;fontColor=#333333;" parent="xF60H8iYvVohdwmhJTkd-52" vertex="1">
          <mxGeometry x="590" width="130" height="37" as="geometry">
            <mxRectangle width="130" height="37" as="alternateBounds" />
          </mxGeometry>
        </mxCell>
        <mxCell id="WdyJap2RYEmjAmXDNgc3-16" style="shape=partialRectangle;html=1;whiteSpace=wrap;connectable=0;strokeColor=#666666;overflow=hidden;fillColor=#f5f5f5;top=0;left=0;bottom=0;right=0;pointerEvents=1;fontSize=16;fontColor=#333333;" vertex="1" parent="xF60H8iYvVohdwmhJTkd-52">
          <mxGeometry x="720" width="150" height="37" as="geometry">
            <mxRectangle width="150" height="37" as="alternateBounds" />
          </mxGeometry>
        </mxCell>
        <mxCell id="xF60H8iYvVohdwmhJTkd-56" value="FOOTER" style="rounded=0;whiteSpace=wrap;html=1;resizeWidth=0;" parent="1" vertex="1">
          <mxGeometry x="10" y="767" width="1150" height="60" as="geometry" />
        </mxCell>
        <mxCell id="WdyJap2RYEmjAmXDNgc3-1" value="" style="rounded=0;whiteSpace=wrap;html=1;fillColor=#f5f5f5;fontColor=#333333;strokeColor=#666666;" vertex="1" parent="1">
          <mxGeometry x="10" width="1150" height="90" as="geometry" />
        </mxCell>
        <mxCell id="WdyJap2RYEmjAmXDNgc3-2" value="Filtrer affichages" style="shape=partialRectangle;whiteSpace=wrap;html=1;bottom=0;top=0;fillColor=none;" vertex="1" parent="1">
          <mxGeometry x="250" y="20" width="130" height="50" as="geometry" />
        </mxCell>
        <mxCell id="WdyJap2RYEmjAmXDNgc3-3" value="Formulaires" style="shape=partialRectangle;whiteSpace=wrap;html=1;bottom=0;top=0;fillColor=none;" vertex="1" parent="1">
          <mxGeometry x="380" y="20" width="130" height="50" as="geometry" />
        </mxCell>
        <mxCell id="WdyJap2RYEmjAmXDNgc3-4" value="Modifications" style="shape=partialRectangle;whiteSpace=wrap;html=1;bottom=0;top=0;fillColor=none;" vertex="1" parent="1">
          <mxGeometry x="510" y="20" width="130" height="50" as="geometry" />
        </mxCell>
        <mxCell id="WdyJap2RYEmjAmXDNgc3-5" value="&lt;p style=&quot;line-height: 120%;&quot;&gt;Accueil&lt;/p&gt;" style="shape=partialRectangle;whiteSpace=wrap;html=1;bottom=0;top=0;fillColor=none;" vertex="1" parent="1">
          <mxGeometry x="115" y="20" width="135" height="50" as="geometry" />
        </mxCell>
        <mxCell id="WdyJap2RYEmjAmXDNgc3-17" value="" style="triangle;whiteSpace=wrap;html=1;rotation=90;" vertex="1" parent="1">
          <mxGeometry x="360" y="50" width="10" height="20" as="geometry" />
        </mxCell>
        <mxCell id="WdyJap2RYEmjAmXDNgc3-18" value="" style="triangle;whiteSpace=wrap;html=1;rotation=90;" vertex="1" parent="1">
          <mxGeometry x="490" y="50" width="10" height="20" as="geometry" />
        </mxCell>
      </root>
    </mxGraphModel>
  </diagram>
</mxfile>
